<svg width="357" height="132" viewBox="0 0 357 132" fill="none" xmlns="http://www.w3.org/2000/svg">
<path d="M117 92C101.411 113.566 85.7651 131.479 63.9604 131.479C42.1558 131.479 4.1095 106.211 0.79108 82.6809C-5.28897 39.5679 25.2751 48.3158 37.9031 39.5679C52.0372 29.7767 37.9031 11.6784 72.0145 1.27154C81.332 -1.57108 108.698 -0.431552 121.76 12.8789C136.662 28.0637 127.502 77.4711 117 92Z" fill="url(#paint0_linear)"/>
<path d="M178.513 89.28H178.193C175.686 94.4 171.659 96.96 166.113 96.96C163.553 96.96 161.233 96.4533 159.153 95.44C157.073 94.4267 155.286 92.9867 153.793 91.12C152.353 89.2533 151.233 86.9867 150.433 84.32C149.686 81.6533 149.313 78.6667 149.313 75.36C149.313 72.0533 149.686 69.0667 150.433 66.4C151.233 63.7333 152.353 61.4667 153.793 59.6C155.286 57.7333 157.073 56.2933 159.153 55.28C161.233 54.2667 163.553 53.76 166.113 53.76C168.993 53.76 171.446 54.4 173.473 55.68C175.553 56.9067 177.126 58.8267 178.193 61.44H178.513V36.8H184.913V96H178.513V89.28ZM167.873 91.2C169.313 91.2 170.673 91.0133 171.953 90.64C173.286 90.2667 174.433 89.7333 175.393 89.04C176.353 88.2933 177.099 87.4133 177.633 86.4C178.219 85.3333 178.513 84.1333 178.513 82.8V67.44C178.513 66.32 178.219 65.28 177.633 64.32C177.099 63.3067 176.353 62.4533 175.393 61.76C174.433 61.0667 173.286 60.5333 171.953 60.16C170.673 59.7333 169.313 59.52 167.873 59.52C164.246 59.52 161.393 60.6667 159.313 62.96C157.233 65.2 156.193 68.16 156.193 71.84V78.88C156.193 82.56 157.233 85.5467 159.313 87.84C161.393 90.08 164.246 91.2 167.873 91.2ZM208.599 63.84C212.385 63.84 215.212 62.9867 217.079 61.28C218.999 59.52 219.959 57.28 219.959 54.56V54C219.959 51.0667 219.025 48.88 217.159 47.44C215.345 45.9467 212.945 45.2 209.959 45.2C207.079 45.2 204.732 45.84 202.919 47.12C201.105 48.3467 199.612 50.0267 198.439 52.16L193.479 48.32C194.172 47.2 194.999 46.1067 195.959 45.04C196.972 43.92 198.145 42.9333 199.479 42.08C200.812 41.2267 202.359 40.5333 204.119 40C205.879 39.4667 207.879 39.2 210.119 39.2C212.465 39.2 214.679 39.52 216.759 40.16C218.839 40.7467 220.625 41.6533 222.119 42.88C223.665 44.0533 224.865 45.52 225.719 47.28C226.625 49.04 227.079 51.04 227.079 53.28C227.079 55.0933 226.785 56.72 226.199 58.16C225.665 59.6 224.919 60.8533 223.959 61.92C222.999 62.9867 221.852 63.8933 220.519 64.64C219.239 65.3867 217.852 65.9467 216.359 66.32V66.64C217.852 66.96 219.292 67.4933 220.679 68.24C222.119 68.9333 223.372 69.8667 224.439 71.04C225.559 72.16 226.439 73.5467 227.079 75.2C227.772 76.8 228.119 78.64 228.119 80.72C228.119 83.12 227.665 85.3333 226.759 87.36C225.852 89.3333 224.572 91.04 222.919 92.48C221.265 93.8667 219.265 94.96 216.919 95.76C214.572 96.56 211.985 96.96 209.159 96.96C206.759 96.96 204.625 96.6933 202.759 96.16C200.892 95.6267 199.239 94.9067 197.799 94C196.359 93.0933 195.079 92.08 193.959 90.96C192.892 89.84 191.932 88.6667 191.079 87.44L196.119 83.6C196.812 84.72 197.559 85.7333 198.359 86.64C199.212 87.5467 200.145 88.32 201.159 88.96C202.172 89.6 203.319 90.1067 204.599 90.48C205.879 90.8 207.372 90.96 209.079 90.96C213.025 90.96 216.012 90.08 218.039 88.32C220.065 86.5067 221.079 83.9467 221.079 80.64V80C221.079 76.6933 220.065 74.16 218.039 72.4C216.012 70.5867 213.025 69.68 209.079 69.68H202.519V63.84H208.599ZM240.728 60.32H234.008V54.72H240.728V46.4C240.728 43.52 241.474 41.2 242.968 39.44C244.461 37.68 246.728 36.8 249.768 36.8H256.008V42.4H247.128V54.72H256.008V60.32H247.128V96H240.728V60.32ZM275.633 96.96C272.806 96.96 270.246 96.4533 267.953 95.44C265.713 94.4267 263.766 92.9867 262.113 91.12C260.513 89.2 259.259 86.9333 258.353 84.32C257.499 81.6533 257.073 78.6667 257.073 75.36C257.073 72.1067 257.499 69.1467 258.353 66.48C259.259 63.8133 260.513 61.5467 262.113 59.68C263.766 57.76 265.713 56.2933 267.953 55.28C270.246 54.2667 272.806 53.76 275.633 53.76C278.406 53.76 280.886 54.2667 283.073 55.28C285.259 56.2933 287.126 57.7067 288.673 59.52C290.219 61.28 291.393 63.3867 292.193 65.84C293.046 68.2933 293.473 70.9867 293.473 73.92V76.96H263.793V78.88C263.793 80.64 264.059 82.2933 264.593 83.84C265.179 85.3333 265.979 86.64 266.993 87.76C268.059 88.88 269.339 89.76 270.833 90.4C272.379 91.04 274.113 91.36 276.033 91.36C278.646 91.36 280.913 90.7467 282.833 89.52C284.806 88.2933 286.326 86.5333 287.393 84.24L291.953 87.52C290.619 90.3467 288.539 92.64 285.713 94.4C282.886 96.1067 279.526 96.96 275.633 96.96ZM275.633 59.12C273.873 59.12 272.273 59.44 270.833 60.08C269.393 60.6667 268.139 61.52 267.073 62.64C266.059 63.76 265.259 65.0933 264.673 66.64C264.086 68.1333 263.793 69.7867 263.793 71.6V72.16H286.593V71.28C286.593 67.6 285.579 64.6667 283.553 62.48C281.579 60.24 278.939 59.12 275.633 59.12ZM330.019 96C327.619 96 325.885 95.36 324.819 94.08C323.805 92.8 323.165 91.2 322.899 89.28H322.499C321.592 91.84 320.099 93.76 318.019 95.04C315.939 96.32 313.459 96.96 310.579 96.96C306.205 96.96 302.792 95.84 300.339 93.6C297.939 91.36 296.739 88.32 296.739 84.48C296.739 80.5867 298.152 77.6 300.979 75.52C303.859 73.44 308.312 72.4 314.339 72.4H322.499V68.32C322.499 65.3867 321.699 63.1467 320.099 61.6C318.499 60.0533 316.045 59.28 312.739 59.28C310.232 59.28 308.125 59.84 306.419 60.96C304.765 62.08 303.379 63.5733 302.259 65.44L298.419 61.84C299.539 59.6 301.325 57.7067 303.779 56.16C306.232 54.56 309.325 53.76 313.059 53.76C318.072 53.76 321.965 54.9867 324.739 57.44C327.512 59.8933 328.899 63.3067 328.899 67.68V90.4H333.619V96H330.019ZM311.619 91.52C313.219 91.52 314.685 91.3333 316.019 90.96C317.352 90.5867 318.499 90.0533 319.459 89.36C320.419 88.6667 321.165 87.8667 321.699 86.96C322.232 86.0533 322.499 85.0667 322.499 84V77.2H314.019C310.339 77.2 307.645 77.7333 305.939 78.8C304.285 79.8667 303.459 81.4133 303.459 83.44V85.12C303.459 87.1467 304.179 88.72 305.619 89.84C307.112 90.96 309.112 91.52 311.619 91.52ZM347.873 96C345.633 96 343.926 95.3867 342.753 94.16C341.633 92.88 341.073 91.2267 341.073 89.2V60.32H334.273V54.72H338.113C339.5 54.72 340.433 54.4533 340.913 53.92C341.446 53.3333 341.713 52.3467 341.713 50.96V43.28H347.473V54.72H356.513V60.32H347.473V90.4H355.873V96H347.873Z" fill="#051037"/>
<g style="mix-blend-mode:hue">
<path d="M79.9998 115C79.9998 121.368 80.2566 125.435 80.0932 128C80.0932 128 72.0002 132 60.5 131.5C40.5002 128 31 120.5 17.9999 110C11.5 103.5 9.5 101.5 5.35107 95C12.2673 83.044 25.1941 75 39.9998 75C62.0912 75 79.9998 92.9086 79.9998 115Z" fill="#AF3535"/>
</g>
<defs>
<linearGradient id="paint0_linear" x1="33.6391" y1="7.1147" x2="50.3454" y2="139.021" gradientUnits="userSpaceOnUse">
<stop stop-color="#1644EB"/>
<stop offset="1" stop-color="#1644EB" stop-opacity="0.6"/>
</linearGradient>
</defs>
</svg>
